# xmcd
#
# Track frame offsets: 
#        183
#        12143
#        27343
#        39693
#        52855
#        65343
#        77518
#        90793
#        104243
#        117568
#        133793
#        164693
#        188643
#        202018
#        219218
#        234093
#        257518
#        271068
#        284905
#        301368
#
# Disc length: 4150 seconds
#
# Revision: 1
# Processed by: cddbd v1.5.2PL0 Copyright (c) Steve Scherf et al.
# Submitted via: ExactAudioCopyFreeDBPlugin 1.0
#
DISCID=14103414
DTITLE=John Lee Hooker - Anthology
DYEAR=1993
DGENRE=Blues
TTITLE0=Little Wheel
TTITLE1=Tupelo
TTITLE2=High Priced Woman
TTITLE3=Union Station Blues
TTITLE4=Leave My Wife Alone
TTITLE5=Walkin' The Boogie
TTITLE6=Down At The Landing
TTITLE7=It's My Own Fault Darling
TTITLE8=Women And Money
TTITLE9=Peace Loving Man
TTITLE10=Let's Go Out Tonight
TTITLE11=I Put My Trust In You
TTITLE12=One Bourbon, One Scotch, One Beer
TTITLE13=You Know, I Know
TTITLE14=I'll Never Trust Love Again
TTITLE15=The Waterfront
TTITLE16=Baby Lee
TTITLE17=The Road Is So Rough
TTITLE18=Mama You've Got A Daughter
TTITLE19=Onions
EXTD=
EXTT0=
EXTT1=
EXTT2=
EXTT3=
EXTT4=
EXTT5=
EXTT6=
EXTT7=
EXTT8=
EXTT9=
EXTT10=
EXTT11=
EXTT12=
EXTT13=
EXTT14=
EXTT15=
EXTT16=
EXTT17=
EXTT18=
EXTT19=
PLAYORDER=
